# xmcd
#
# Track frame offsets:
#	150
#	17860
#	26643
#	39028
#	56994
#	68263
#	71627
#	81265
#	93087
#	105373
#	115577
#	131359
#	140750
#	152600
#	170849
#
# Disc length: 2656 seconds
#
# Revision: 0
# Processed by: cddbd v1.5.2PL0 Copyright (c) Steve Scherf et al.
# Submitted via: audiograbber 1.83.01
#
DISCID=bc0a5e0f
DTITLE=Meinhof - The Rush Hour Of Human Misery
DYEAR=2008
DGENRE=Metal
TTITLE0=The rushhour of human misery
TTITLE1=Hell
TTITLE2=Punk rock star
TTITLE3=You are not a victim
TTITLE4=sBleeding soul
TTITLE5=This is murder
TTITLE6=Church of hedonism
TTITLE7=Their worst enemy
TTITLE8=Out of system
TTITLE9=Islamic rage
TTITLE10=Lie
TTITLE11=EZLN
TTITLE12=The labour chain
TTITLE13=If there is a hope
TTITLE14=What Next? - Hands off me - Another war
EXTD=
EXTT0=
EXTT1=
EXTT2=
EXTT3=
EXTT4=
EXTT5=
EXTT6=
EXTT7=
EXTT8=
EXTT9=
EXTT10=
EXTT11=
EXTT12=
EXTT13=
EXTT14=
PLAYORDER=
